<svg id="Icon_ionic-md-heart-dislike" data-name="Icon ionic-md-heart-dislike" xmlns="http://www.w3.org/2000/svg" width="16" height="15.65" viewBox="0 0 16 15.65">
  <path id="Path_61" data-name="Path 61" d="M3.522,4.618l.961.961A4.445,4.445,0,0,0,3.368,8.563c0,3.057,2.719,5.51,6.837,9.294L11.37,18.9l1.161-1.046c.792-.727,1.534-1.407,2.211-2.05l3.545,3.538.923-.923L4.452,3.691Z" transform="translate(-3.368 -3.691)"/>
  <path id="Path_62" data-name="Path 62" d="M22.242,8.926a4.349,4.349,0,0,0-4.4-4.426,4.731,4.731,0,0,0-3.6,1.688,4.731,4.731,0,0,0-3.6-1.688,4.638,4.638,0,0,0-.934.1l9.755,9.732C21.215,12.456,22.242,10.806,22.242,8.926Z" transform="translate(-6.242 -4.058)"/>
</svg>
