<svg xmlns="http://www.w3.org/2000/svg" width="16" height="13.33" viewBox="0 0 16 13.33">
  <path id="Icon_ionic-ios-share-alt" data-name="Icon ionic-ios-share-alt" d="M20.36,12.349l-5.878-5.5a.3.3,0,0,0-.233-.1c-.183.008-.417.137-.417.333V9.841a.178.178,0,0,1-.15.171c-5.845.9-8.307,5.27-9.177,9.811-.033.179.208.346.321.2a10.624,10.624,0,0,1,8.832-4.474.206.206,0,0,1,.175.2V18.46a.358.358,0,0,0,.6.221l5.92-5.595a.46.46,0,0,0,.146-.35A.558.558,0,0,0,20.36,12.349Z" transform="translate(-4.502 -6.749)"/>
</svg>
