<svg xmlns="http://www.w3.org/2000/svg" width="25.6" height="24" viewBox="0 0 25.6 24">
  <g id="fit_recipe_icon" data-name="fit recipe icon" transform="translate(-24 -184)">
    <path id="Icon_awesome-mug-hot" data-name="Icon awesome-mug-hot" d="M6.355,6.867a.8.8,0,0,0,.8.633H7.98A.779.779,0,0,0,8.8,6.656a5.988,5.988,0,0,0-1.83-3.5A4.345,4.345,0,0,1,5.645.647.791.791,0,0,0,4.84,0H4.02a.785.785,0,0,0-.815.844A6.651,6.651,0,0,0,5.235,4.8,3.728,3.728,0,0,1,6.355,6.867Zm5.6,0a.8.8,0,0,0,.8.633h.825a.779.779,0,0,0,.815-.844,5.988,5.988,0,0,0-1.83-3.5A4.345,4.345,0,0,1,11.245.647.791.791,0,0,0,10.44,0H9.62a.782.782,0,0,0-.815.844A6.651,6.651,0,0,0,10.835,4.8a3.728,3.728,0,0,1,1.12,2.067ZM20,9H1.6A1.551,1.551,0,0,0,0,10.5v9A4.658,4.658,0,0,0,4.8,24h9.6a4.658,4.658,0,0,0,4.8-4.5H20a5.437,5.437,0,0,0,5.6-5.25A5.437,5.437,0,0,0,20,9Zm0,7.5h-.8V12H20a2.329,2.329,0,0,1,2.4,2.25A2.329,2.329,0,0,1,20,16.5Z" transform="translate(24 184)" fill="#675f5f"/>
    <path id="Icon_awesome-running" data-name="Icon awesome-running" d="M4.9,1.731A.865.865,0,1,0,4.038.865.865.865,0,0,0,4.9,1.731ZM2.05,5.724l-.267.622H.577a.577.577,0,1,0,0,1.154h1.4a.864.864,0,0,0,.8-.524l.158-.37-.192-.114a1.717,1.717,0,0,1-.685-.768ZM6.923,4.038H6.129l-.47-.96A1.73,1.73,0,0,0,4.546,2.16L3.264,1.779a1.723,1.723,0,0,0-1.457.309l-.715.548a.577.577,0,0,0,.7.916L2.509,3a.561.561,0,0,1,.456-.111l.265.079L2.554,4.547a1.157,1.157,0,0,0,.474,1.448l1.532.9-.5,1.582a.577.577,0,1,0,1.1.345L5.737,7a.869.869,0,0,0-.39-.981l-1.1-.652L4.807,3.96l.365.747a.871.871,0,0,0,.777.485h.973a.577.577,0,1,0,0-1.154Z" transform="translate(30.5 195.77)" fill="#fff"/>
  </g>
</svg>
