<svg xmlns="http://www.w3.org/2000/svg" width="24" height="16.558" viewBox="0 0 24 16.558">
  <g id="storyborad_icon" data-name="storyborad icon" transform="translate(-24 -311.442)">
    <path id="Icon_material-perm-media" data-name="Icon material-perm-media" d="M2,6.312H0v4.14H.01L0,17.9a1.858,1.858,0,0,0,2,1.656H20V17.9H2ZM22,4.656H14L12,3H6A1.848,1.848,0,0,0,4.01,4.656L4,14.591a1.858,1.858,0,0,0,2,1.656H22a1.858,1.858,0,0,0,2-1.656V6.312A1.858,1.858,0,0,0,22,4.656ZM7,13.763,11.5,8.8,15,12.529l2.5-2.492L21,13.763Z" transform="translate(24 308.442)" fill="#675f5f"/>
    <g id="Group_11" data-name="Group 11" transform="translate(26 -13)">
      <rect id="Rectangle_124" data-name="Rectangle 124" width="16" height="9" transform="translate(4 327)" fill="#675f5f"/>
      <path id="Icon_map-gym" data-name="Icon map-gym" d="M3.035,6.317a.123.123,0,0,1-.006.173l-.265.248a.122.122,0,0,1-.172-.006L1.05,5.069A.123.123,0,0,1,1.057,4.9l.265-.247a.122.122,0,0,1,.172.006ZM5,3.19A.123.123,0,0,1,5,3.363L3.33,4.919a.122.122,0,0,1-.172-.006l-.4-.429a.123.123,0,0,1,.006-.173L4.432,2.755a.122.122,0,0,1,.172.006L5,3.19Zm-1.4,2.6a.123.123,0,0,1-.006.173l-.265.247A.122.122,0,0,1,3.159,6.2L1.618,4.539a.123.123,0,0,1,.006-.173l.265-.247a.122.122,0,0,1,.172.006ZM6.169,3.25a.123.123,0,0,1-.006.173L5.9,3.67a.122.122,0,0,1-.172-.006L4.185,2a.123.123,0,0,1,.006-.173l.266-.248a.122.122,0,0,1,.172.006Zm.566-.529a.123.123,0,0,1-.006.173l-.265.247a.122.122,0,0,1-.172-.006L4.752,1.473A.123.123,0,0,1,4.758,1.3l.265-.248a.121.121,0,0,1,.172.006Z" transform="translate(8.933 327.981)" fill="#fff"/>
    </g>
  </g>
</svg>
