<svg id="Icon_ionic-ios-body" data-name="Icon ionic-ios-body" xmlns="http://www.w3.org/2000/svg" width="8.958" height="11.316" viewBox="0 0 8.958 11.316">
  <path id="Path_73" data-name="Path 73" d="M17.808,3.841A1.591,1.591,0,1,1,16.216,2.25,1.591,1.591,0,0,1,17.808,3.841Z" transform="translate(-11.737 -2.25)"/>
  <path id="Path_74" data-name="Path 74" d="M12.9,10.125H5.06a.543.543,0,1,0,0,1.086h2.3a.492.492,0,0,1,.4.321,2.607,2.607,0,0,1-.012,1.17l-.089.484a.008.008,0,0,1,0,.007h0l-.709,3.9a.545.545,0,0,0,.455.629.553.553,0,0,0,.644-.441l.49-2.713v0s.145-.735.432-.735h.026c.292,0,.432.735.432.735v0l.49,2.713a.557.557,0,0,0,.646.439.543.543,0,0,0,.453-.629l-.709-3.9h0a.008.008,0,0,0,0-.007l-.089-.484a2.607,2.607,0,0,1-.012-1.17.492.492,0,0,1,.4-.321h2.3a.543.543,0,1,0,0-1.086Z" transform="translate(-4.5 -6.412)"/>
</svg>
