<svg id="Icon_ionic-ios-body" data-name="Icon ionic-ios-body" xmlns="http://www.w3.org/2000/svg" width="19" height="24" viewBox="0 0 19 24">
  <path id="Path_73" data-name="Path 73" d="M21.375,5.625A3.375,3.375,0,1,1,18,2.25,3.375,3.375,0,0,1,21.375,5.625Z" transform="translate(-8.5 -2.25)" fill="#675f5f"/>
  <path id="Path_74" data-name="Path 74" d="M22.313,10.125H5.688a1.152,1.152,0,1,0,0,2.3h4.874a1.043,1.043,0,0,1,.851.682,5.529,5.529,0,0,1-.025,2.481L11.2,16.619a.017.017,0,0,1,0,.014h0L9.69,24.9a1.156,1.156,0,0,0,.965,1.334,1.173,1.173,0,0,0,1.366-.936l1.039-5.755v.01s.307-1.56.915-1.56h.054c.618,0,.915,1.56.915,1.56v0L15.984,25.3a1.181,1.181,0,0,0,1.371.931,1.153,1.153,0,0,0,.96-1.334l-1.5-8.265h0a.017.017,0,0,0,0-.014l-.188-1.027a5.529,5.529,0,0,1-.025-2.481,1.043,1.043,0,0,1,.851-.682h4.869a1.152,1.152,0,1,0,0-2.3Z" transform="translate(-4.5 -2.25)" fill="#675f5f"/>
</svg>
