<svg xmlns="http://www.w3.org/2000/svg" width="25" height="18" viewBox="0 0 25 18">
  <g id="Group_8" data-name="Group 8" transform="translate(0)">
    <path id="Icon_awesome-dumbbell" data-name="Icon awesome-dumbbell" d="M2.688,1.943H1.448a.679.679,0,0,0-.62.729V5.829H.207A.228.228,0,0,0,0,6.071V7.529a.228.228,0,0,0,.207.243h.62v3.157a.679.679,0,0,0,.62.729H2.688a.679.679,0,0,0,.62-.729V2.671A.679.679,0,0,0,2.688,1.943ZM16.336,5.829h-.62V2.671a.679.679,0,0,0-.62-.729H13.855a.679.679,0,0,0-.62.729v8.257a.679.679,0,0,0,.62.729H15.1a.679.679,0,0,0,.62-.729V7.771h.62a.228.228,0,0,0,.207-.243V6.071A.228.228,0,0,0,16.336,5.829ZM11.787,0H10.546a.679.679,0,0,0-.62.729v5.1H6.617V.729A.679.679,0,0,0,6,0H4.756a.679.679,0,0,0-.62.729V12.871a.679.679,0,0,0,.62.729H6a.679.679,0,0,0,.62-.729v-5.1H9.926v5.1a.679.679,0,0,0,.62.729h1.241a.679.679,0,0,0,.62-.729V.729A.679.679,0,0,0,11.787,0Z" transform="translate(13.6) rotate(90)" fill="#675f5f"/>
    <path id="Icon_awesome-prescription-bottle" data-name="Icon awesome-prescription-bottle" d="M.911,5.464H4.326a.228.228,0,0,1,.228.228v.455a.228.228,0,0,1-.228.228H.911V8.2H4.326a.228.228,0,0,1,.228.228v.455a.228.228,0,0,1-.228.228H.911v1.821H4.326a.228.228,0,0,1,.228.228v.455a.228.228,0,0,1-.228.228H.911v1.821a.913.913,0,0,0,.911.911H9.107a.913.913,0,0,0,.911-.911V3.643H.911ZM10.246,0H.683A.685.685,0,0,0,0,.683V2.049a.685.685,0,0,0,.683.683h9.563a.685.685,0,0,0,.683-.683V.683A.685.685,0,0,0,10.246,0Z" transform="translate(14.071 3.429)" fill="#675f5f"/>
  </g>
</svg>
