<svg xmlns="http://www.w3.org/2000/svg" width="11" height="10.312" viewBox="0 0 11 10.312">
  <g id="fit_recipe_icon" data-name="fit recipe icon" transform="translate(-24 -184)">
    <path id="Icon_awesome-mug-hot" data-name="Icon awesome-mug-hot" d="M2.731,2.951a.343.343,0,0,0,.344.272h.354a.335.335,0,0,0,.35-.363,2.573,2.573,0,0,0-.786-1.5A1.867,1.867,0,0,1,2.426.278.34.34,0,0,0,2.08,0H1.727a.337.337,0,0,0-.35.363,2.858,2.858,0,0,0,.872,1.7A1.6,1.6,0,0,1,2.731,2.951Zm2.406,0a.343.343,0,0,0,.344.272h.354a.335.335,0,0,0,.35-.363,2.573,2.573,0,0,0-.786-1.5A1.867,1.867,0,0,1,4.832.278.34.34,0,0,0,4.486,0H4.134a.336.336,0,0,0-.35.363,2.858,2.858,0,0,0,.872,1.7,1.6,1.6,0,0,1,.481.888Zm3.457.916H.687A.666.666,0,0,0,0,4.512V8.379a2,2,0,0,0,2.062,1.934H6.187A2,2,0,0,0,8.25,8.379h.344A2.336,2.336,0,0,0,11,6.123,2.336,2.336,0,0,0,8.594,3.867Zm0,3.223H8.25V5.156h.344a1,1,0,0,1,1.031.967A1,1,0,0,1,8.594,7.09Z" transform="translate(24 184)"/>
    <path id="Icon_awesome-running" data-name="Icon awesome-running" d="M2.107.744A.372.372,0,1,0,1.735.372.372.372,0,0,0,2.107.744ZM.881,2.459l-.115.267H.248a.248.248,0,1,0,0,.5h.6A.371.371,0,0,0,1.19,3l.068-.159-.083-.049a.738.738,0,0,1-.294-.33Zm2.094-.724H2.634l-.2-.413A.743.743,0,0,0,1.953.928L1.4.764A.741.741,0,0,0,.776.9l-.307.236a.248.248,0,0,0,.3.393l.307-.236a.241.241,0,0,1,.2-.048l.114.034-.29.677a.5.5,0,0,0,.2.622l.658.389-.213.68a.248.248,0,1,0,.473.148l.245-.783A.373.373,0,0,0,2.3,2.588l-.474-.28L2.066,1.7l.157.321a.374.374,0,0,0,.334.208h.418a.248.248,0,1,0,0-.5Z" transform="translate(26.793 189.057)" fill="#fff"/>
  </g>
</svg>
