<svg id="Group_4" data-name="Group 4" xmlns="http://www.w3.org/2000/svg" width="24" height="20.75" viewBox="0 0 24 20.75">
  <g id="Icon_ionic-ios-man" data-name="Icon ionic-ios-man">
    <path id="Path_69" data-name="Path 69" d="M16.741,5.042h-.009A1.958,1.958,0,1,1,18.7,3.083a1.963,1.963,0,0,1-1.958,1.958Z" transform="translate(-10.761 -1.125)" fill="#675f5f"/>
    <path id="Path_70" data-name="Path 70" d="M14.153,24.556a1.3,1.3,0,0,1-1.421-1.314l.053-12h-.526v4.539a.951.951,0,0,1-.337.791,1.3,1.3,0,0,1-1.6,0,.945.945,0,0,1-.337-.791V10.524a2.245,2.245,0,0,1,.726-1.66,2.962,2.962,0,0,1,2.053-.778H19.2a2.946,2.946,0,0,1,2.053.782,2.236,2.236,0,0,1,.726,1.656v5.257a.927.927,0,0,1-.347.791,1.376,1.376,0,0,1-1.632,0,.927.927,0,0,1-.347-.791V11.242H19.18v12a1.345,1.345,0,0,1-1.463,1.314,1.345,1.345,0,0,1-1.442-1.288v-6.1h-.632v6.091A1.375,1.375,0,0,1,14.153,24.556Z" transform="translate(-9.984 -3.806)" fill="#675f5f"/>
  </g>
  <g id="Icon_ionic-md-man" data-name="Icon ionic-md-man" transform="translate(16.738 0.306)">
    <path id="Path_71" data-name="Path 71" d="M16.99,5.475a1.612,1.612,0,1,0-1.612-1.612A1.607,1.607,0,0,0,16.99,5.475Z" transform="translate(-13.359 -2.25)" fill="#675f5f"/>
    <path id="Path_72" data-name="Path 72" d="M17.342,8.086H14.108a2.07,2.07,0,0,0-2.014,2.092v4.911a.671.671,0,1,0,1.34,0V10.55h.259V22.9a.93.93,0,1,0,1.859,0V15.781H15.9V22.9a.93.93,0,1,0,1.859,0V10.55h.216v4.539a.692.692,0,1,0,1.383,0V10.178A2.075,2.075,0,0,0,17.342,8.086Z" transform="translate(-12.094 -4.498)" fill="#675f5f"/>
  </g>
</svg>
