<svg id="Group_27" data-name="Group 27" xmlns="http://www.w3.org/2000/svg" width="13" height="9.36" viewBox="0 0 13 9.36">
  <path id="Icon_awesome-dumbbell" data-name="Icon awesome-dumbbell" d="M1.4,1.01H.753a.353.353,0,0,0-.323.379V3.031H.108A.118.118,0,0,0,0,3.157v.758a.118.118,0,0,0,.108.126H.43V5.683a.353.353,0,0,0,.323.379H1.4a.353.353,0,0,0,.323-.379V1.389A.353.353,0,0,0,1.4,1.01Zm7.1,2.021H8.172V1.389A.353.353,0,0,0,7.85,1.01H7.2a.353.353,0,0,0-.323.379V5.683a.353.353,0,0,0,.323.379H7.85a.353.353,0,0,0,.323-.379V4.041h.323A.118.118,0,0,0,8.6,3.915V3.157A.118.118,0,0,0,8.495,3.031ZM6.129,0H5.484a.353.353,0,0,0-.323.379V3.031H3.441V.379A.353.353,0,0,0,3.118,0H2.473a.353.353,0,0,0-.323.379V6.693a.353.353,0,0,0,.323.379h.645a.353.353,0,0,0,.323-.379V4.041h1.72V6.693a.353.353,0,0,0,.323.379h.645a.353.353,0,0,0,.323-.379V.379A.353.353,0,0,0,6.129,0Z" transform="translate(7.072) rotate(90)"/>
  <path id="Icon_awesome-prescription-bottle" data-name="Icon awesome-prescription-bottle" d="M.474,2.841H2.249a.119.119,0,0,1,.118.118V3.2a.119.119,0,0,1-.118.118H.474v.947H2.249a.119.119,0,0,1,.118.118v.237a.119.119,0,0,1-.118.118H.474v.947H2.249a.119.119,0,0,1,.118.118v.237a.119.119,0,0,1-.118.118H.474V7.1a.475.475,0,0,0,.474.474H4.736A.475.475,0,0,0,5.209,7.1V1.894H.474ZM5.328,0H.355A.356.356,0,0,0,0,.355v.71a.356.356,0,0,0,.355.355H5.328a.356.356,0,0,0,.355-.355V.355A.356.356,0,0,0,5.328,0Z" transform="translate(7.317 1.783)"/>
</svg>
