<svg id="Group_28" data-name="Group 28" xmlns="http://www.w3.org/2000/svg" width="11" height="9.51" viewBox="0 0 11 9.51">
  <g id="Icon_ionic-ios-man" data-name="Icon ionic-ios-man">
    <path id="Path_69" data-name="Path 69" d="M15.671,2.92h0a.9.9,0,1,1,.9-.9.9.9,0,0,1-.9.9Z" transform="translate(-12.93 -1.125)"/>
    <path id="Path_70" data-name="Path 70" d="M11.9,15.635a.6.6,0,0,1-.651-.6l.024-5.5h-.241v2.08a.436.436,0,0,1-.154.363.594.594,0,0,1-.733,0,.433.433,0,0,1-.154-.363V9.2a1.029,1.029,0,0,1,.333-.761,1.357,1.357,0,0,1,.941-.357h2.951a1.35,1.35,0,0,1,.941.359,1.025,1.025,0,0,1,.333.759v2.409a.425.425,0,0,1-.159.363.631.631,0,0,1-.748,0,.425.425,0,0,1-.159-.363V9.532H14.2v5.5a.67.67,0,0,1-1.332.012v-2.8h-.29v2.792A.63.63,0,0,1,11.9,15.635Z" transform="translate(-9.984 -6.124)"/>
  </g>
  <g id="Icon_ionic-md-man" data-name="Icon ionic-md-man" transform="translate(7.671 0.14)">
    <path id="Path_71" data-name="Path 71" d="M16.116,3.728a.739.739,0,1,0-.739-.739A.737.737,0,0,0,16.116,3.728Z" transform="translate(-14.452 -2.25)"/>
    <path id="Path_72" data-name="Path 72" d="M14.5,8.086H13.017a.949.949,0,0,0-.923.959V11.3a.308.308,0,1,0,.614,0V9.215h.119v5.659a.426.426,0,1,0,.852,0V11.613h.159v3.263a.426.426,0,1,0,.852,0V9.215h.1V11.3a.317.317,0,1,0,.634,0V9.045A.951.951,0,0,0,14.5,8.086Z" transform="translate(-12.094 -6.441)"/>
  </g>
</svg>
