<svg xmlns="http://www.w3.org/2000/svg" width="12.5" height="8.624" viewBox="0 0 12.5 8.624">
  <g id="storyborad_icon" data-name="storyborad icon" transform="translate(-24 -311.442)">
    <path id="Icon_material-perm-media" data-name="Icon material-perm-media" d="M1.042,4.725H0V6.881H.005L0,10.762a.968.968,0,0,0,1.042.862h9.375v-.862H1.042Zm10.417-.862H7.292L6.25,3H3.125a.963.963,0,0,0-1.036.862L2.083,9.037A.968.968,0,0,0,3.125,9.9h8.333A.968.968,0,0,0,12.5,9.037V4.725A.968.968,0,0,0,11.458,3.862ZM3.646,8.606,5.99,6.018,7.812,7.963l1.3-1.3,1.823,1.94Z" transform="translate(24 308.442)"/>
    <g id="Group_11" data-name="Group 11" transform="translate(27.125 312.774)">
      <rect id="Rectangle_124" data-name="Rectangle 124" width="8.333" height="4.688" transform="translate(0 0)"/>
      <path id="Icon_map-gym" data-name="Icon map-gym" d="M2.068,3.778a.064.064,0,0,1,0,.09L1.927,4a.063.063,0,0,1-.09,0l-.8-.865a.064.064,0,0,1,0-.09l.138-.129a.063.063,0,0,1,.09,0ZM3.093,2.15a.064.064,0,0,1,0,.09l-.868.811a.063.063,0,0,1-.09,0l-.207-.224a.064.064,0,0,1,0-.09L2.8,1.923a.063.063,0,0,1,.09,0l.207.224ZM2.364,3.5a.064.064,0,0,1,0,.09l-.138.129a.063.063,0,0,1-.09,0l-.8-.865a.064.064,0,0,1,0-.09l.138-.129a.063.063,0,0,1,.09,0ZM3.7,2.181a.064.064,0,0,1,0,.09L3.56,2.4a.063.063,0,0,1-.09,0l-.8-.865a.064.064,0,0,1,0-.09l.138-.129a.063.063,0,0,1,.09,0ZM4,1.905a.064.064,0,0,1,0,.09l-.138.129a.063.063,0,0,1-.09,0l-.8-.866a.064.064,0,0,1,0-.09L3.1,1.036a.063.063,0,0,1,.089,0Z" transform="translate(2.081 0.022)" fill="#fff"/>
    </g>
  </g>
</svg>
